<?xml version="1.0" encoding="UTF-8" standalone="no"?>
<svg
   xmlns:dc="http://purl.org/dc/elements/1.1/"
   xmlns:cc="http://creativecommons.org/ns#"
   xmlns:rdf="http://www.w3.org/1999/02/22-rdf-syntax-ns#"
   xmlns:svg="http://www.w3.org/2000/svg"
   xmlns="http://www.w3.org/2000/svg"
   xmlns:sodipodi="http://sodipodi.sourceforge.net/DTD/sodipodi-0.dtd"
   xmlns:inkscape="http://www.inkscape.org/namespaces/inkscape"
   viewBox="0 0 48 48"
   width="24px"
   height="24px"
   version="1.1"
   id="svg6"
   sodipodi:docname="bootstrap.svg"
   inkscape:version="0.92.4 (5da689c313, 2019-01-14)">
  <metadata
     id="metadata12">
    <rdf:RDF>
      <cc:Work
         rdf:about="">
        <dc:format>image/svg+xml</dc:format>
        <dc:type
           rdf:resource="http://purl.org/dc/dcmitype/StillImage" />
        <dc:title></dc:title>
      </cc:Work>
    </rdf:RDF>
  </metadata>
  <defs
     id="defs10" />
  <sodipodi:namedview
     pagecolor="#ffffff"
     bordercolor="#666666"
     borderopacity="1"
     objecttolerance="10"
     gridtolerance="10"
     guidetolerance="10"
     inkscape:pageopacity="0"
     inkscape:pageshadow="2"
     inkscape:window-width="1366"
     inkscape:window-height="705"
     id="namedview8"
     showgrid="false"
     inkscape:zoom="9.8333333"
     inkscape:cx="-0.15254237"
     inkscape:cy="12"
     inkscape:window-x="-8"
     inkscape:window-y="-8"
     inkscape:window-maximized="1"
     inkscape:current-layer="svg6" />
  <g
     id="g824"
     transform="translate(-6,6)">
    <path
       style="fill:#673ab7;stroke-width:1.33333337"
       inkscape:connector-curvature="0"
       id="path2"
       d="M 54,35.333333 C 54,39.016 51.016,42 47.333333,42 H 12.666667 C 8.9853333,42 6,39.016 6,35.333333 V 0.66666667 C 6,-3.016 8.9853333,-6 12.666667,-6 H 47.333333 C 51.016,-6 54,-3.016 54,0.66666667 Z" />
    <path
       style="fill:#ffffff;stroke-width:1.33333337"
       inkscape:connector-curvature="0"
       id="path4"
       d="m 42.04,20.133333 c -0.866667,-1.2 -2.12,-2.026666 -3.733333,-2.466666 0,0 1.36,-0.493334 2.586666,-2.333334 C 41.626667,14.16 42,12.746667 42,11.093333 42,8.2266667 40.96,6.0266667 38.88,4.52 36.8,3.0133333 34.453333,2 30.466667,2 H 18 V 34 H 31.906667 C 35.68,33.973333 38.52,33.16 40.453333,31.6 c 1.92,-1.586667 2.88,-3.933333 2.88,-7.066667 0,-1.733333 -0.426666,-3.2 -1.293333,-4.4 z M 26,7.3333333 c 0,0 5.56,0 5.666667,0 2.026666,0 3.666666,1.64 3.666666,3.6666667 0,2.026667 -1.64,3.666667 -3.666666,3.666667 -0.106667,0 -5.666667,0 -5.666667,0 z M 32.666667,28.666667 H 26 v -8 h 6.666667 c 2.213333,0 4,1.786666 4,4 0,2.213333 -1.786667,4 -4,4 z" />
  </g>
</svg>
