<?xml version="1.0" encoding="UTF-8" standalone="no"?>
<svg
   xmlns:dc="http://purl.org/dc/elements/1.1/"
   xmlns:cc="http://creativecommons.org/ns#"
   xmlns:rdf="http://www.w3.org/1999/02/22-rdf-syntax-ns#"
   xmlns:svg="http://www.w3.org/2000/svg"
   xmlns="http://www.w3.org/2000/svg"
   xmlns:sodipodi="http://sodipodi.sourceforge.net/DTD/sodipodi-0.dtd"
   xmlns:inkscape="http://www.inkscape.org/namespaces/inkscape"
   viewBox="0 0 48 48"
   width="24px"
   height="24px"
   version="1.1"
   id="svg14"
   sodipodi:docname="cpp.svg"
   inkscape:version="0.92.4 (5da689c313, 2019-01-14)">
  <metadata
     id="metadata20">
    <rdf:RDF>
      <cc:Work
         rdf:about="">
        <dc:format>image/svg+xml</dc:format>
        <dc:type
           rdf:resource="http://purl.org/dc/dcmitype/StillImage" />
        <dc:title></dc:title>
      </cc:Work>
    </rdf:RDF>
  </metadata>
  <defs
     id="defs18" />
  <sodipodi:namedview
     pagecolor="#ffffff"
     bordercolor="#666666"
     borderopacity="1"
     objecttolerance="10"
     gridtolerance="10"
     guidetolerance="10"
     inkscape:pageopacity="0"
     inkscape:pageshadow="2"
     inkscape:window-width="1366"
     inkscape:window-height="705"
     id="namedview16"
     showgrid="false"
     inkscape:zoom="9.8333333"
     inkscape:cx="14.862764"
     inkscape:cy="12"
     inkscape:window-x="-8"
     inkscape:window-y="-8"
     inkscape:window-maximized="1"
     inkscape:current-layer="svg14" />
  <g
     id="g833"
     transform="matrix(1.1428563,0,0,1.1428563,-3.4286021,-3.4282474)">
    <path
       id="path2"
       d="m 22.903,3.286 c 0.679,-0.381 1.515,-0.381 2.193,0 3.355,1.883 13.451,7.551 16.807,9.434 0.679,0.38 1.097,1.084 1.097,1.846 0,3.766 0,15.101 0,18.867 0,0.762 -0.418,1.466 -1.097,1.847 -3.355,1.883 -13.451,7.551 -16.807,9.434 -0.679,0.381 -1.515,0.381 -2.193,0 C 19.548,42.831 9.452,37.163 6.096,35.28 5.418,34.899 5,34.196 5,33.434 5,29.668 5,18.333 5,14.567 5,13.805 5.418,13.101 6.097,12.72 9.451,10.837 19.549,5.169 22.903,3.286 Z"
       inkscape:connector-curvature="0"
       style="clip-rule:evenodd;fill:#00549d;fill-rule:evenodd" />
    <path
       id="path4"
       d="M 5.304,34.404 C 5.038,34.048 5,33.71 5,33.255 5,29.511 5,18.241 5,14.496 5,13.738 5.417,13.038 6.094,12.66 9.437,10.788 19.499,5.153 22.842,3.28 c 0.677,-0.379 1.594,-0.371 2.271,0.008 3.343,1.872 13.371,7.459 16.714,9.331 0.27,0.152 0.476,0.335 0.66,0.576 z"
       inkscape:connector-curvature="0"
       style="clip-rule:evenodd;fill:#0086d4;fill-rule:evenodd" />
    <path
       id="path6"
       d="m 24,10 c 7.727,0 14,6.273 14,14 0,7.727 -6.273,14 -14,14 -7.727,0 -14,-6.273 -14,-14 0,-7.727 6.273,-14 14,-14 z m 0,7 c 3.863,0 7,3.136 7,7 0,3.863 -3.137,7 -7,7 -3.863,0 -7,-3.137 -7,-7 0,-3.864 3.136,-7 7,-7 z"
       inkscape:connector-curvature="0"
       style="clip-rule:evenodd;fill:#ffffff;fill-rule:evenodd" />
    <path
       id="path8"
       d="m 42.485,13.205 c 0.516,0.483 0.506,1.211 0.506,1.784 0,3.795 -0.032,14.589 0.009,18.384 0.004,0.396 -0.127,0.813 -0.323,1.127 L 23.593,24 Z"
       inkscape:connector-curvature="0"
       style="clip-rule:evenodd;fill:#0075c0;fill-rule:evenodd" />
    <path
       id="path10"
       d="m 31,21 h 2 v 6 h -2 z m 7,0 h 2 v 6 h -2 z"
       inkscape:connector-curvature="0"
       style="clip-rule:evenodd;fill:#ffffff;fill-rule:evenodd" />
    <path
       id="path12"
       d="m 29,23 h 6 v 2 h -6 z m 7,0 h 6 v 2 h -6 z"
       inkscape:connector-curvature="0"
       style="clip-rule:evenodd;fill:#ffffff;fill-rule:evenodd" />
  </g>
</svg>
