<?xml version="1.0" encoding="UTF-8" standalone="no"?>
<svg
   xmlns:dc="http://purl.org/dc/elements/1.1/"
   xmlns:cc="http://creativecommons.org/ns#"
   xmlns:rdf="http://www.w3.org/1999/02/22-rdf-syntax-ns#"
   xmlns:svg="http://www.w3.org/2000/svg"
   xmlns="http://www.w3.org/2000/svg"
   xmlns:sodipodi="http://sodipodi.sourceforge.net/DTD/sodipodi-0.dtd"
   xmlns:inkscape="http://www.inkscape.org/namespaces/inkscape"
   viewBox="0 0 48 48"
   width="48px"
   height="48px"
   version="1.1"
   id="svg10"
   sodipodi:docname="css3.svg"
   inkscape:version="0.92.4 (5da689c313, 2019-01-14)">
  <metadata
     id="metadata16">
    <rdf:RDF>
      <cc:Work
         rdf:about="">
        <dc:format>image/svg+xml</dc:format>
        <dc:type
           rdf:resource="http://purl.org/dc/dcmitype/StillImage" />
        <dc:title></dc:title>
      </cc:Work>
    </rdf:RDF>
  </metadata>
  <defs
     id="defs14" />
  <sodipodi:namedview
     pagecolor="#ffffff"
     bordercolor="#666666"
     borderopacity="1"
     objecttolerance="10"
     gridtolerance="10"
     guidetolerance="10"
     inkscape:pageopacity="0"
     inkscape:pageshadow="2"
     inkscape:window-width="1366"
     inkscape:window-height="705"
     id="namedview12"
     showgrid="false"
     inkscape:zoom="4.9166667"
     inkscape:cx="-7.5254237"
     inkscape:cy="24"
     inkscape:window-x="-8"
     inkscape:window-y="-8"
     inkscape:window-maximized="1"
     inkscape:current-layer="svg10" />
  <g
     id="g827"
     transform="matrix(1.2631579,0,0,1.2631579,-6.3157896,-6.3157896)">
    <path
       id="path2"
       d="M 41,5 H 7 l 3,34 14,4 14,-4 z"
       inkscape:connector-curvature="0"
       style="fill:#0277bd" />
    <path
       id="path4"
       d="M 24,8 V 39.9 L 35.2,36.7 37.7,8 Z"
       inkscape:connector-curvature="0"
       style="fill:#039be5" />
    <path
       id="path6"
       d="M 33.1,13 H 24 v 4 h 4.9 l -0.3,4 H 24 v 4 h 4.4 l -0.3,4.5 -4.1,1.4 v 4.2 L 31.9,32.5 32.6,21 v 0 z"
       inkscape:connector-curvature="0"
       style="fill:#ffffff" />
    <path
       id="path8"
       d="m 24,13 v 4 h -8.9 l -0.3,-4 z m -4.6,8 0.2,4 H 24 v -4 z m 0.4,6 h -4 l 0.3,5.5 7.9,2.6 v -4.2 l -4.1,-1.4 z"
       inkscape:connector-curvature="0"
       style="fill:#eeeeee" />
  </g>
</svg>
