<?xml version="1.0" encoding="UTF-8" standalone="no"?>
<svg
   xmlns:dc="http://purl.org/dc/elements/1.1/"
   xmlns:cc="http://creativecommons.org/ns#"
   xmlns:rdf="http://www.w3.org/1999/02/22-rdf-syntax-ns#"
   xmlns:svg="http://www.w3.org/2000/svg"
   xmlns="http://www.w3.org/2000/svg"
   xmlns:sodipodi="http://sodipodi.sourceforge.net/DTD/sodipodi-0.dtd"
   xmlns:inkscape="http://www.inkscape.org/namespaces/inkscape"
   id="Layer_1"
   version="1.1"
   viewBox="0 0 128 128"
   xml:space="preserve"
   sodipodi:docname="mongodb.svg"
   width="128"
   height="128"
   inkscape:version="0.92.4 (5da689c313, 2019-01-14)"><metadata
     id="metadata31"><rdf:RDF><cc:Work
         rdf:about=""><dc:format>image/svg+xml</dc:format><dc:type
           rdf:resource="http://purl.org/dc/dcmitype/StillImage" /><dc:title></dc:title></cc:Work></rdf:RDF></metadata><defs
     id="defs29" /><sodipodi:namedview
     pagecolor="#ffffff"
     bordercolor="#666666"
     borderopacity="1"
     objecttolerance="10"
     gridtolerance="10"
     guidetolerance="10"
     inkscape:pageopacity="0"
     inkscape:pageshadow="2"
     inkscape:window-width="1366"
     inkscape:window-height="705"
     id="namedview27"
     showgrid="false"
     inkscape:zoom="2.2890625"
     inkscape:cx="125.79584"
     inkscape:cy="70.389375"
     inkscape:window-x="-8"
     inkscape:window-y="-8"
     inkscape:window-maximized="1"
     inkscape:current-layer="Layer_1" /><style
     type="text/css"
     id="style2">
	.st0{fill:#8E714E;}
	.st1{fill:#442D22;}
	.st2{fill:#FFFFFF;}
	.st3{fill:#A6A385;}
	.st4{fill:#499D4A;}
	.st5{fill:#58AA50;}
</style><g
     id="g24"
     transform="matrix(0.26557902,0,0,0.26557902,-4.4966516,44.386989)"><g
       id="g22"><path
         class="st0"
         d="m 466.2,62 c -0.4,0.1 -0.9,1 -0.9,1.6 -0.1,3.5 -0.2,12.7 -0.2,19 0,0.2 0.3,0.5 0.5,0.5 1.3,0.1 4.4,0.2 7.1,0.2 3.7,0 5.9,-0.5 7.1,-1 3.1,-1.6 4.6,-5 4.6,-8.7 0,-8.4 -5.9,-11.7 -14.7,-11.7 -0.5,-0.2 -2.2,-0.2 -3.5,0.1 z m 22.4,38.9 c 0,-8.6 -6.3,-13.4 -17.8,-13.4 -0.5,0 -4.2,-0.1 -5,0.1 -0.3,0.1 -0.6,0.3 -0.6,0.5 0,6.2 -0.1,16 0.2,19.8 0.2,1.7 1.4,4 2.9,4.7 1.6,0.9 5.1,1 7.6,1 6.7,0 12.7,-3.8 12.7,-12.7 z M 448.4,57.2 c 0.9,0 3.5,0.3 10.2,0.3 6.3,0 11.4,-0.2 17.6,-0.2 7.6,0 18,2.7 18,14 0,5.6 -3.9,10 -9,12.2 -0.3,0.1 -0.3,0.3 0,0.3 7.3,1.8 13.7,6.3 13.7,14.9 0,8.3 -5.2,13.7 -12.8,17 -4.6,2 -10.3,2.7 -16.2,2.7 -4.4,0 -16.3,-0.5 -23,-0.3 -0.7,-0.3 0.6,-3.4 1.2,-3.9 1.6,-0.1 2.8,-0.2 4.4,-0.7 2.3,-0.6 2.6,-1.3 3,-4.9 0.2,-3 0.2,-13.8 0.2,-21.5 0,-10.5 0.1,-17.7 0,-21.1 -0.1,-2.7 -1,-3.6 -3,-4.1 -1.5,-0.3 -3.9,-0.6 -5.9,-0.9 -0.4,-0.5 1.1,-3.5 1.6,-3.8 z m -50.1,54.1 c 2.1,1.7 6.2,2.3 9.8,2.3 4.7,0 9.4,-0.9 13.9,-5 4.6,-4.2 7.8,-10.6 7.8,-20.9 0,-9.8 -3.7,-17.8 -11.4,-22.5 -4.3,-2.7 -9.9,-3.8 -16.3,-3.8 -1.9,0 -3.7,0.1 -4.9,0.6 -0.3,0.2 -0.9,1 -0.9,1.4 -0.2,1.7 -0.2,15.1 -0.2,23 0,8.1 0,19.4 0.2,20.7 0.1,1.3 0.7,3.3 2,4.2 z M 378.5,57.2 c 1.7,0 8,0.3 11,0.3 5.5,0 9.4,-0.3 19.7,-0.3 8.7,0 16,2.3 21.2,6.8 6.3,5.5 9.7,13 9.7,22.3 0,13.1 -6,20.7 -12,25 -6,4.4 -13.8,7 -25,7 -5.9,0 -16.1,-0.2 -24.5,-0.3 h -0.1 c -0.4,-0.8 0.7,-3.8 1.4,-3.9 2.3,-0.3 2.9,-0.3 4,-0.8 1.8,-0.7 2.2,-1.7 2.4,-4.9 0.3,-6 0.2,-13.2 0.2,-21.4 0,-5.8 0.1,-17.2 -0.1,-20.9 -0.3,-3 -1.6,-3.8 -4.2,-4.3 -1.3,-0.3 -3,-0.6 -5.5,-0.9 -0.2,-0.5 1.4,-3.2 1.8,-3.7 z"
         id="path4"
         inkscape:connector-curvature="0"
         style="fill:#8e714e" /><path
         class="st1"
         d="m 273.3,114.7 c -2.2,-0.3 -3.7,-0.6 -5.7,-1.5 -0.3,-0.2 -0.7,-1 -0.7,-1.4 -0.2,-3 -0.2,-11.7 -0.2,-17.6 0,-4.7 -0.8,-8.8 -2.8,-11.7 -2.3,-3.3 -5.7,-5.2 -10.1,-5.2 -3.8,0 -9,2.6 -13.2,6.3 -0.1,0.1 -0.8,0.7 -0.7,-0.3 0,-1 0.2,-2.9 0.3,-4.2 0.1,-1.2 -0.6,-1.8 -0.6,-1.8 -2.8,1.4 -10.6,3.2 -13.5,3.5 -2.1,0.4 -2.6,2.4 -0.4,3.1 h 0.1 c 2.3,0.7 3.9,1.5 5.1,2.3 0.9,0.7 0.8,1.7 0.8,2.4 0.1,6.5 0.1,16.5 -0.2,22 -0.1,2.2 -0.7,3 -2.3,3.3 l 0.2,-0.1 c -1.2,0.3 -2.2,0.5 -3.7,0.7 -0.5,0.5 -0.5,3.3 0,3.9 1,0 6,-0.3 10.2,-0.3 5.7,0 8.7,0.3 10.2,0.3 0.6,-0.7 0.8,-3.3 0.4,-3.9 -1.7,-0.1 -2.9,-0.3 -4,-0.6 -1.6,-0.3 -2,-1.1 -2.1,-3 -0.2,-4.6 -0.2,-14.3 -0.2,-21 0,-1.8 0.5,-2.7 1,-3.2 2,-1.7 5.2,-3 8.1,-3 2.8,0 4.6,0.9 6,2 1.9,1.6 2.5,3.8 2.8,5.5 0.4,3.7 0.3,11.1 0.3,17.6 0,3.5 -0.3,4.3 -1.6,4.8 -0.6,0.3 -2.2,0.6 -4,0.8 -0.6,0.6 -0.4,3.3 0,3.9 2.5,0 5.5,-0.3 9.8,-0.3 5.4,0 8.9,0.3 10.3,0.3 0.6,-0.4 0.8,-2.9 0.4,-3.6 z m 24.1,-33.2 c -4.6,0 -7.5,3.6 -7.5,9.1 0,5.7 2.5,12.2 9.7,12.2 1.2,0 3.5,-0.5 4.5,-1.7 1.7,-1.6 2.8,-4.7 2.8,-8 0,-7.3 -3.6,-11.6 -9.5,-11.6 z m -0.6,38.4 c -1.7,0 -3,0.5 -3.7,1 -3.7,2.3 -5.3,4.6 -5.3,7.3 0,2.5 1,4.5 3,6.3 2.5,2.2 6,3.2 10.4,3.2 8.9,0 12.8,-4.8 12.8,-9.5 0,-3.3 -1.7,-5.5 -5,-6.7 -2.5,-1.1 -6.9,-1.6 -12.2,-1.6 z m 0.6,22.6 c -5.3,0 -9.1,-1.1 -12.4,-3.7 -3.2,-2.4 -4.6,-6.1 -4.6,-8.6 0,-0.7 0.2,-2.6 1.7,-4.3 1,-1 3,-3 8,-6.4 0.2,-0.1 0.3,-0.2 0.3,-0.3 0,-0.2 -0.2,-0.3 -0.3,-0.4 -4.1,-1.6 -5.3,-4.1 -5.7,-5.5 V 113 c -0.1,-0.5 -0.3,-1 0.5,-1.6 0.6,-0.4 1.5,-1 2.4,-1.6 1.5,-0.9 3,-1.8 4,-2.6 0.2,-0.2 0.2,-0.3 0.2,-0.5 0,-0.2 -0.2,-0.3 -0.3,-0.4 -6.1,-2 -9.1,-6.5 -9.1,-13.3 0,-4.4 2,-8.4 5.6,-11 2.4,-1.9 8.5,-4.3 12.5,-4.3 h 0.3 c 4.1,0.1 6.3,1 9.6,2.1 1.7,0.6 3.4,0.9 5.7,0.9 3.4,0 4.9,-1 6.1,-2.3 0.1,0.2 0.3,0.6 0.3,1.7 0.1,1.1 -0.3,2.8 -1.1,4 -0.7,1 -2.3,1.7 -3.8,1.7 h -0.4 c -1.6,-0.2 -2.3,-0.3 -2.3,-0.3 l -0.3,0.2 c -0.1,0.2 0,0.3 0.1,0.6 l 0.1,0.2 c 0.2,0.8 0.5,3.1 0.5,3.7 0,7.1 -2.9,10.3 -5.9,12.6 -3,2.2 -6.3,3.6 -10.2,3.9 -0.1,0 -0.4,0 -1.2,0.1 -0.4,0 -1,0.1 -1.1,0.1 h -0.1 c -0.7,0.2 -2.4,1 -2.4,2.5 0,1.3 0.8,2.9 4.5,3.1 0.8,0.1 1.6,0.1 2.4,0.2 5,0.3 11.1,0.8 14,1.7 4,1.5 6.5,5 6.5,9.3 0,6.4 -4.6,12.4 -12.3,16.2 -4,1.7 -7.7,2.6 -11.8,2.6 z M 347,81.9 c -1.8,0 -3.5,0.4 -4.7,1.3 -3.4,2.1 -5.1,6.3 -5.1,12.3 0,11.4 5.7,19.4 13.9,19.4 2.4,0 4.3,-0.7 6,-2.1 2.5,-2.1 3.8,-6.3 3.8,-12.1 0,-11.2 -5.7,-18.8 -13.9,-18.8 z m 1.5,37.2 c -14.8,0 -20.1,-10.9 -20.1,-21 0,-7.1 2.9,-12.6 8.6,-16.5 4.1,-2.5 9,-3.9 13.3,-3.9 11.3,0 19.2,8.1 19.2,19.7 0,7.9 -3.1,14.2 -9.1,18 -2.8,1.9 -7.8,3.7 -11.9,3.7 z M 193.6,81.9 c -1.8,0 -3.5,0.4 -4.7,1.3 -3.4,2.1 -5.1,6.3 -5.1,12.3 0,11.4 5.7,19.4 13.9,19.4 2.4,0 4.3,-0.7 6,-2.1 2.5,-2.1 3.8,-6.3 3.8,-12.1 0,-11.2 -5.6,-18.8 -13.9,-18.8 z m 1.6,37.2 c -14.8,0 -20.1,-10.9 -20.1,-21 0,-7.1 2.9,-12.6 8.6,-16.5 4.1,-2.5 9,-3.9 13.3,-3.9 11.3,0 19.2,8.1 19.2,19.7 0,7.9 -3.1,14.2 -9.1,18 -2.8,1.9 -7.8,3.7 -11.9,3.7 z m -99.4,-0.9 c -0.2,-0.3 -0.3,-1 -0.3,-2 0,-0.7 0.2,-1.1 0.3,-1.3 1.8,-0.3 2.8,-0.5 3.8,-0.8 1.7,-0.4 2.4,-1.4 2.5,-3.6 0.3,-5.2 0.3,-15.1 0.2,-22 v -0.2 c 0,-0.8 0,-1.7 -1,-2.4 -1.4,-0.9 -3,-1.7 -5.2,-2.3 -0.8,-0.3 -1.3,-0.7 -1.2,-1.2 0,-0.5 0.5,-1.1 1.7,-1.3 2.9,-0.3 10.3,-2.1 13.3,-3.4 0.2,0.2 0.4,0.7 0.4,1.4 l -0.1,1 c -0.1,1 -0.2,2.1 -0.2,3.2 0,0.3 0.3,0.6 0.7,0.6 0.2,0 0.3,-0.1 0.5,-0.2 5.6,-4.3 10.6,-5.9 13.2,-5.9 4.3,0 7.6,2 10.1,6.2 0.2,0.3 0.3,0.3 0.6,0.3 0.2,0 0.4,-0.1 0.5,-0.3 5.1,-3.9 10.3,-6.3 13.7,-6.3 8.1,0 12.9,6 12.9,16.2 0,2.9 0,6.6 -0.1,10 0,3 -0.1,5.8 -0.1,7.8 0,0.4 0.6,1.8 1.6,2.1 1.2,0.6 2.9,0.9 5,1.2 h 0.1 c 0.2,0.6 -0.2,2.9 -0.5,3.3 -0.5,0 -1.3,0 -2.2,-0.1 -1.7,-0.1 -4,-0.2 -6.6,-0.2 -5.4,0 -8.2,0.1 -10.9,0.3 -0.2,-0.7 -0.3,-2.8 0,-3.3 1.6,-0.3 2.3,-0.5 3.3,-0.8 1.7,-0.5 2.2,-1.3 2.3,-3.6 0,-1.7 0.3,-15.7 -0.2,-19.1 -0.5,-3.5 -3.1,-7.6 -8.9,-7.6 -2.2,0 -5.6,0.9 -8.9,3.4 -0.2,0.2 -0.3,0.6 -0.3,0.9 v 0.1 c 0.3,1.8 0.3,3.9 0.3,7.1 v 5.7 c 0,3.9 -0.1,7.6 0,10.3 0,1.9 1.1,2.3 2.1,2.7 0.5,0.1 0.9,0.2 1.3,0.3 0.8,0.2 1.6,0.3 2.8,0.6 0.2,0.3 0.2,1.5 -0.1,2.4 -0.1,0.5 -0.3,0.8 -0.3,0.9 -3,-0.1 -6,-0.2 -10.4,-0.2 -1.3,0 -3.6,0.1 -5.5,0.1 -1.6,0 -3,0.1 -3.9,0.1 -0.1,-0.2 -0.3,-0.8 -0.3,-1.7 0,-0.8 0.2,-1.4 0.3,-1.6 0.4,-0.1 0.8,-0.2 1.2,-0.2 1,-0.2 1.9,-0.3 2.8,-0.5 1.5,-0.4 2,-1.2 2.1,-3.1 0.3,-4.3 0.5,-16.8 -0.1,-19.9 -1,-5 -3.9,-7.6 -8.5,-7.6 -2.7,0 -6.1,1.3 -8.9,3.4 -0.4,0.3 -0.8,1.2 -0.8,2 v 5.1 c 0,6.3 0,14.1 0.1,17.5 0.1,1 0.4,2.3 2.4,2.7 0.4,0.1 1.1,0.3 2,0.3 l 1.6,0.3 c 0.2,0.5 0.1,2.6 -0.3,3.3 -0.9,0 -1.9,-0.1 -3.1,-0.1 -1.8,-0.1 -4.2,-0.2 -6.8,-0.2 -3,0 -5.2,0.1 -7,0.2 -1,0 -2,0 -3,0 z"
         id="path6"
         inkscape:connector-curvature="0"
         style="fill:#442d22" /><g
         id="g20"><path
           class="st2"
           d="m 50,139.1 -3.6,-1.2 c 0,0 0.4,-18.2 -6.1,-19.5 -4.3,-5 0.7,-213.9 16.3,-0.7 0,0 -5.4,2.7 -6.3,7.3 -1,4.5 -0.3,14.1 -0.3,14.1 z"
           id="path8"
           inkscape:connector-curvature="0"
           style="fill:#ffffff" /><path
           class="st3"
           d="m 50,139.1 -3.6,-1.2 c 0,0 0.4,-18.2 -6.1,-19.5 -4.3,-5 0.7,-213.9 16.3,-0.7 0,0 -5.4,2.7 -6.3,7.3 -1,4.5 -0.3,14.1 -0.3,14.1 z"
           id="path10"
           inkscape:connector-curvature="0"
           style="fill:#a6a385" /><path
           class="st2"
           d="m 51.9,121.5 c 0,0 31.2,-20.5 23.9,-63.2 -7,-31 -23.7,-41.2 -25.5,-45.1 -2,-2.8 -3.9,-7.7 -3.9,-7.7 l 1.3,86.3 c 0.1,0.2 -2.6,26.5 4.2,29.7"
           id="path12"
           inkscape:connector-curvature="0"
           style="fill:#ffffff" /><path
           class="st4"
           d="m 51.9,121.5 c 0,0 31.2,-20.5 23.9,-63.2 -7,-31 -23.7,-41.2 -25.5,-45.1 -2,-2.8 -3.9,-7.7 -3.9,-7.7 l 1.3,86.3 c 0.1,0.2 -2.6,26.5 4.2,29.7"
           id="path14"
           inkscape:connector-curvature="0"
           style="fill:#499d4a" /><path
           class="st2"
           d="m 44.6,122.7 c 0,0 -29.3,-20 -27.6,-55.2 C 18.7,32.3 39.3,15 43.3,11.8 46,9 46.1,8 46.3,5.2 c 1.8,3.9 1.5,58.5 1.7,65 0.8,24.7 -1.4,47.8 -3.4,52.5 z"
           id="path16"
           inkscape:connector-curvature="0"
           style="fill:#ffffff" /><path
           class="st5"
           d="m 44.6,122.7 c 0,0 -29.3,-20 -27.6,-55.2 C 18.7,32.3 39.3,15 43.3,11.8 46,9 46.1,8 46.3,5.2 c 1.8,3.9 1.5,58.5 1.7,65 0.8,24.7 -1.4,47.8 -3.4,52.5 z"
           id="path18"
           inkscape:connector-curvature="0"
           style="fill:#58aa50" /></g></g></g></svg>