<?xml version="1.0" encoding="UTF-8" standalone="no"?>
<svg
   xmlns:dc="http://purl.org/dc/elements/1.1/"
   xmlns:cc="http://creativecommons.org/ns#"
   xmlns:rdf="http://www.w3.org/1999/02/22-rdf-syntax-ns#"
   xmlns:svg="http://www.w3.org/2000/svg"
   xmlns="http://www.w3.org/2000/svg"
   xmlns:sodipodi="http://sodipodi.sourceforge.net/DTD/sodipodi-0.dtd"
   xmlns:inkscape="http://www.inkscape.org/namespaces/inkscape"
   id="Layer_1"
   version="1.1"
   viewBox="0 0 128 128"
   xml:space="preserve"
   sodipodi:docname="mysql.svg"
   width="128"
   height="128"
   inkscape:version="0.92.4 (5da689c313, 2019-01-14)"><metadata
     id="metadata25"><rdf:RDF><cc:Work
         rdf:about=""><dc:format>image/svg+xml</dc:format><dc:type
           rdf:resource="http://purl.org/dc/dcmitype/StillImage" /><dc:title></dc:title></cc:Work></rdf:RDF></metadata><defs
     id="defs23" /><sodipodi:namedview
     pagecolor="#ffffff"
     bordercolor="#666666"
     borderopacity="1"
     objecttolerance="10"
     gridtolerance="10"
     guidetolerance="10"
     inkscape:pageopacity="0"
     inkscape:pageshadow="2"
     inkscape:window-width="1366"
     inkscape:window-height="705"
     id="namedview21"
     showgrid="false"
     inkscape:zoom="1.6223698"
     inkscape:cx="16.642321"
     inkscape:cy="47.650002"
     inkscape:window-x="-8"
     inkscape:window-y="-8"
     inkscape:window-maximized="1"
     inkscape:current-layer="Layer_1" /><style
     type="text/css"
     id="style2">
	.st0{fill:#00678F;}
	.st1{fill:#E38D1A;}
</style><g
     id="g840"
     transform="matrix(0.72851451,0,0,0.72851451,-1.2384744,29.171895)"><path
       id="path4"
       d="m 1.7,85.3 h 5.8 v -23 l 9.1,20 c 1,2.4 2.5,3.3 5.4,3.3 2.9,0 4.2,-0.9 5.3,-3.3 l 9,-20 v 23 h 5.8 v -23 c 0,-2.2 -0.9,-3.3 -2.8,-3.9 -4.4,-1.3 -7.4,-0.2 -8.7,2.8 L 21.8,81 13.2,61.2 C 11.9,58.2 8.9,57.1 4.5,58.4 2.6,59 1.7,60 1.7,62.3 Z"
       class="st0"
       inkscape:connector-curvature="0"
       style="fill:#00678f" /><path
       id="path6"
       d="m 46.9,66.6 h 5.8 v 12.6 c 0,0.7 0.2,2.3 3.4,2.4 1.7,0 12.6,0 12.7,0 V 66.5 h 5.8 c 0,0 0,20.6 0,20.7 0,5.1 -6.3,6.2 -9.2,6.2 H 47.1 v -3.9 c 0,0 18.4,0 18.4,0 3.7,-0.4 3.3,-2.3 3.3,-2.9 V 85.1 H 56.4 c -5.8,0 -9.5,-2.6 -9.5,-5.5 0,-0.3 0.2,-12.9 0,-13 z"
       class="st0"
       inkscape:connector-curvature="0"
       style="fill:#00678f" /><path
       id="path8"
       d="m 172.3,51.9 c -3.6,-0.1 -6.3,0.3 -8.7,1.2 -0.7,0.3 -1.7,0.3 -1.8,1.1 0.4,0.4 0.4,0.9 0.7,1.4 0.5,0.9 1.5,2.1 2.3,2.7 0.9,0.7 1.9,1.4 2.9,2.1 1.7,1.1 3.7,1.7 5.4,2.8 1,0.6 2,1.4 2.9,2.1 0.5,0.4 0.8,0.9 1.4,1.2 0,0 0,-0.1 0,-0.1 -0.3,-0.4 -0.4,-1 -0.7,-1.4 -0.4,-0.4 -0.9,-0.8 -1.3,-1.3 -1.3,-1.7 -2.9,-3.3 -4.6,-4.5 -1.4,-1 -4.6,-2.3 -5.1,-4 0,0 0,0 -0.1,-0.1 1,-0.1 2.1,-0.4 3.1,-0.7 1.5,-0.4 2.9,-0.3 4.5,-0.7 0.7,-0.2 1.4,-0.4 2.1,-0.6 0,-0.1 0,-0.3 0,-0.4 -0.8,-0.8 -1.4,-1.9 -2.2,-2.6 -2.3,-2 -4.8,-3.9 -7.4,-5.5 -1.4,-0.9 -3.2,-1.5 -4.6,-2.2 -0.5,-0.3 -1.4,-0.4 -1.7,-0.8 -0.8,-1 -1.3,-2.3 -1.8,-3.4 -1.3,-2.5 -2.5,-5.2 -3.7,-7.8 -0.8,-1.7 -1.3,-3.5 -2.3,-5.1 C 147,17.7 142,13.1 134.3,8.6 c -1.7,-0.9 -3.6,-1.3 -5.7,-1.8 -1.1,0 -2.2,-0.1 -3.3,-0.2 -0.7,-0.3 -1.4,-1.2 -2.1,-1.6 -2.5,-1.6 -9.1,-5.1 -11,-0.5 -1.2,2.9 1.8,5.8 2.8,7.2 0.8,1 1.7,2.2 2.3,3.3 0.3,0.8 0.4,1.6 0.7,2.4 0.7,2 1.4,4.1 2.3,6 0.5,0.9 1,1.9 1.7,2.8 0.4,0.5 1,0.7 1.1,1.5 -0.6,0.9 -0.7,2.2 -1,3.3 -1.6,5 -1,11.3 1.3,15 0.7,1.1 2.4,3.6 4.7,2.6 2,-0.8 1.6,-3.3 2.1,-5.6 0.1,-0.5 0,-0.9 0.3,-1.2 0,0 0,0.1 0,0.1 0.6,1.2 1.2,2.5 1.8,3.7 1.4,2.2 3.8,4.5 5.8,6 1.1,0.8 1.9,2.2 3.3,2.7 0,0 0,-0.1 0,-0.1 0,0 0,0 -0.1,0 -0.3,-0.4 -0.7,-0.6 -1,-0.9 -0.8,-0.8 -1.7,-1.8 -2.3,-2.7 -1.9,-2.5 -3.5,-5.3 -5,-8.1 -0.7,-1.4 -1.3,-2.9 -1.9,-4.3 -0.3,-0.5 -0.3,-1.3 -0.7,-1.6 -0.7,1 -1.7,1.8 -2.1,3 -0.8,1.9 -0.9,4.3 -1.2,6.7 -0.2,0 -0.1,0 -0.2,0.1 -1.4,-0.4 -1.9,-1.8 -2.5,-3.1 -1.3,-3.2 -1.6,-8.3 -0.4,-11.9 0.3,-0.9 1.7,-3.9 1.1,-4.8 -0.3,-0.8 -1.2,-1.3 -1.7,-2 -0.6,-0.8 -1.2,-1.9 -1.6,-2.9 -1.1,-2.5 -1.6,-5.3 -2.8,-7.8 -0.5,-1.2 -1.5,-2.4 -2.2,-3.4 C 116,9.3 115,8.4 114.3,7 c -0.2,-0.5 -0.5,-1.3 -0.2,-1.8 0.1,-0.4 0.3,-0.5 0.6,-0.6 0.6,-0.5 2.2,0.1 2.8,0.4 1.7,0.7 3,1.3 4.4,2.2 0.6,0.4 1.3,1.3 2.1,1.5 0.3,0 0.6,0 0.9,0 1.4,0.3 3,0.1 4.4,0.5 2.4,0.8 4.5,1.9 6.4,3.1 5.8,3.7 10.7,9 13.9,15.3 0.5,1 0.8,2 1.2,3 0.9,2.2 2.1,4.4 3,6.6 0.9,2.1 1.8,4.2 3.2,6 0.7,0.9 3.3,1.4 4.6,1.9 0.9,0.4 2.3,0.8 3.1,1.2 1.5,0.9 3,2 4.5,3 0.7,0.6 3,1.7 3.1,2.6 z"
       class="st0"
       inkscape:connector-curvature="0"
       style="fill:#00678f" /><path
       id="path10"
       d="m 126.8,13.2 c -0.8,0 -1.3,0.1 -1.8,0.2 0,0 0,0 0,0.1 0,0 0,0 0.1,0 0.4,0.7 1,1.2 1.4,1.8 0.4,0.7 0.7,1.4 1,2.1 0,0 0.1,-0.1 0.1,-0.1 0.6,-0.4 0.9,-1.2 0.9,-2.2 -0.3,-0.3 -0.3,-0.6 -0.5,-0.9 -0.3,-0.5 -0.9,-0.7 -1.2,-1 z"
       class="st0"
       inkscape:connector-curvature="0"
       style="fill:#00678f" /><path
       id="path12"
       d="m 79.1,85.3 h 16.8 c 2,0 3.8,-0.4 5.4,-1.1 2.5,-1.2 3.7,-2.7 3.7,-4.8 v -4.3 c 0,-1.7 -1.4,-3.2 -4.1,-4.3 -1.4,-0.5 -3.2,-0.8 -5,-0.8 h -7 c -2.4,0 -3.5,-0.7 -3.8,-2.3 0,-0.2 0,-0.4 0,-0.5 v -2.6 c 0,-0.1 0,-0.3 0,-0.5 0.3,-1.2 0.9,-1.5 3,-1.7 0.2,0 0.4,0 0.5,0 h 16.6 V 58.5 H 88.9 c -2.4,0 -3.6,0.1 -4.7,0.5 -3.4,1.1 -5,2.8 -5,5.8 V 68 c 0,2.6 2.9,4.9 7.9,5.4 0.5,0 1.1,0 1.7,0 h 6 c 0.2,0 0.4,0 0.6,0 1.8,0.2 2.6,0.5 3.2,1.2 0.4,0.4 0.4,0.7 0.4,1.1 v 3.4 c 0,0.4 -0.3,0.9 -0.8,1.4 -0.5,0.5 -1.4,0.8 -2.5,0.8 -0.2,0 -0.4,0 -0.6,0 h -16 z"
       class="st1"
       inkscape:connector-curvature="0"
       style="fill:#e38d1a" /><path
       id="path14"
       d="m 141.3,78.5 c 0,4 3,6.2 9,6.6 0.6,0 1.1,0.1 1.7,0.1 h 15.2 v -3.9 h -15.3 c -3.4,0 -4.7,-0.8 -4.7,-2.9 v -20 h -5.8 z"
       class="st1"
       inkscape:connector-curvature="0"
       style="fill:#e38d1a" /><path
       id="path16"
       d="M 108.7,78.7 V 64.9 c 0,-3.5 2.5,-5.7 7.4,-6.3 0.5,0 1.1,-0.1 1.6,-0.1 h 11.1 c 0.6,0 1.1,0 1.7,0.1 4.9,0.7 7.3,2.8 7.3,6.3 v 13.8 c 0,2.9 -1,4.4 -3.4,5.4 l 5.7,5.2 h -6.7 l -4.6,-4.2 -4.7,0.3 h -6.2 c -1,0 -2.2,-0.1 -3.4,-0.4 -4,-1.1 -5.8,-3.1 -5.8,-6.3 z m 6.3,-0.3 c 0,0.2 0.1,0.4 0.1,0.6 0.3,1.6 1.8,2.5 4.1,2.5 h 5.3 l -4.8,-4.4 h 6.7 l 4.2,3.8 c 0.8,-0.4 1.3,-1.1 1.5,-1.9 0,-0.2 0,-0.4 0,-0.6 V 65.2 c 0,-0.2 0,-0.4 0,-0.5 -0.3,-1.5 -1.8,-2.4 -4.1,-2.4 h -8.8 c -2.6,0 -4.3,1.1 -4.3,2.9 z"
       class="st1"
       inkscape:connector-curvature="0"
       style="fill:#e38d1a" /><path
       id="path18"
       d="m 169.8,85.3 h 0.8 V 82 h 1.1 v -0.7 h -3.1 V 82 h 1.2 z m 6.5,0 h 0.8 v -3.9 h -1.2 l -1,2.7 -1.1,-2.7 h -1.2 v 3.9 h 0.8 v -3 0 l 1.1,3 h 0.6 l 1.1,-3 v 0 z"
       class="st1"
       inkscape:connector-curvature="0"
       style="fill:#e38d1a" /></g></svg>